# xmcd
#
# Track frame offsets: 
#        200
#        14142
#        27787
#        35665
#        47915
#        59212
#        70510
#        84090
#        94657
#        107052
#        118632
#        130005
#        140175
#
# Disc length: 2036 seconds
#
# Revision: 0
# Processed by: cddbd v1.4PL0 Copyright (c) Steve Scherf et al.
# Submitted via: ExactAudioCopy v0.90b4
#
DISCID=b607f20d
DTITLE=lost and found - new day
DYEAR=1989
DGENRE=Bluegrass
TTITLE0=baby's gone
TTITLE1=one teardrop and one step away
TTITLE2=I'll take a change on loving you
TTITLE3=god gave you to me
TTITLE4=if you were my tomorrow
TTITLE5=until the day I die
TTITLE6=you just keep me hanging on
TTITLE7=farther down the road
TTITLE8=what ever happened to our thing
TTITLE9=hello trouble
TTITLE10=whishful thinking
TTITLE11=country side of living
TTITLE12=sweet marie
EXTD=
EXTT0=
EXTT1=
EXTT2=
EXTT3=
EXTT4=
EXTT5=
EXTT6=
EXTT7=
EXTT8=
EXTT9=
EXTT10=
EXTT11=
EXTT12=
PLAYORDER=
